<svg width="512" height="512" viewBox="0 0 512 512" fill="none" xmlns="http://www.w3.org/2000/svg">
<g clip-path="url(#clip0_491_2587)">
<path fill-rule="evenodd" clip-rule="evenodd" d="M471.949 253.051C471.949 373.951 373.939 471.961 253.039 471.961C132.139 471.961 34.1289 373.951 34.1289 253.051C34.1289 132.151 132.139 34.1406 253.039 34.1406C373.939 34.1406 471.949 132.151 471.949 253.051Z" fill="#F35034"/>
<path d="M347.442 145.131L225.192 267.381C204.982 247.181 184.708 226.901 164.532 206.761L114.844 256.511C183.544 325.266 251.714 393.451 319.844 461.571C403.214 434.879 464.844 359.601 471.374 269.041C430.054 227.731 388.744 186.441 347.434 145.131" fill="black" fill-opacity="0.235"/>
<path fill-rule="evenodd" clip-rule="evenodd" d="M256 1C115.17 1 1 115.17 1 256C1 396.83 115.17 511 256 511C396.83 511 511 396.83 511 256C511 115.17 396.83 1 256 1ZM264.827 45.931C385.727 45.931 483.727 143.931 483.727 264.831C483.727 385.731 385.727 483.731 264.827 483.731C143.927 483.731 45.897 385.731 45.897 264.831C45.897 143.931 143.927 45.931 264.827 45.931Z" fill="black" fill-opacity="0.067"/>
<path fill-rule="evenodd" clip-rule="evenodd" d="M256 4.42969C117.06 4.42969 4.42969 117.06 4.42969 256C4.42969 394.94 117.06 507.57 256 507.57C394.94 507.57 507.57 394.94 507.57 256C507.57 117.06 394.94 4.42969 256 4.42969ZM261.885 42.9857C382.785 42.9857 480.785 140.986 480.785 261.886C480.785 382.786 382.785 480.786 261.885 480.786C140.985 480.786 42.9547 382.786 42.9547 261.886C42.9547 140.986 140.985 42.9857 261.885 42.9857Z" fill="black" fill-opacity="0.129"/>
<path fill-rule="evenodd" clip-rule="evenodd" d="M255.999 8.35938C119.229 8.35938 8.35938 119.229 8.35938 255.999C8.35938 392.769 119.229 503.639 255.999 503.639C392.769 503.639 503.639 392.769 503.639 255.999C503.639 119.229 392.769 8.35938 255.999 8.35938ZM258.941 40.0504C379.841 40.0504 477.841 138.05 477.841 258.95C477.841 379.85 379.841 477.85 258.941 477.85C138.041 477.85 40.0114 379.85 40.0114 258.95C40.0114 138.05 138.041 40.0504 258.941 40.0504Z" fill="black" fill-opacity="0.129"/>
<path fill-rule="evenodd" clip-rule="evenodd" d="M253.042 7.85938C117.622 7.85938 7.85156 117.639 7.85156 253.049C7.85156 388.469 117.632 498.239 253.042 498.239C388.462 498.239 498.232 388.459 498.232 253.049C498.232 117.629 388.452 7.85938 253.042 7.85938ZM253.042 34.1564C373.942 34.1564 471.942 132.156 471.942 253.056C471.942 373.956 373.942 471.956 253.042 471.956C132.142 471.956 34.1116 373.956 34.1116 253.056C34.1116 132.156 132.142 34.1564 253.042 34.1564Z" fill="white" stroke="black" stroke-opacity="0.31" stroke-width="4.904"/>
<path d="M347.451 145.131L225.171 267.411L164.551 206.751L114.832 256.501L175.452 317.131L225.171 366.881L274.921 317.131L397.171 194.881L347.451 145.131Z" fill="white"/>
</g>
<defs>
<clipPath id="clip0_491_2587">
<rect width="512" height="512" fill="white"/>
</clipPath>
</defs>
</svg>
